# xmcd CD database file
#
# Track frame offsets:
#	150
#	14992
#	30080
#	48115
#	67327
#	85475
#	109257
#	121210
#	141367
#	169067
#	186830
#	211740
#
# Disc length: 3034 seconds
#
# Revision: 0
# Processed by: cddbd v1.5.2PL0 Copyright (c) Steve Scherf et al.
# Submitted via: CDex 1.70beta1
#
DISCID=aa0bd80c
DTITLE=Lillian Boutte -  Humphrey Lyttelton And His Band - The Dazzling Lillian Boutte
DYEAR=1900
DGENRE=Jazz
TTITLE0=Back In Your Own Back Yard
TTITLE1=Miss Otis Regrets
TTITLE2=Squiggles
TTITLE3=Old Fashioned Love
TTITLE4=I'm Pulling Through
TTITLE5=You Can Have My Husband
TTITLE6=I Double Dare You
TTITLE7=Blue Again
TTITLE8=Stealin' The Bean
TTITLE9=Better Change Your Habits And Mend Your Ways
TTITLE10=Lillian
TTITLE11=Down In Honky Tonk Town
EXTD=
EXTT0=
EXTT1=
EXTT2=
EXTT3=
EXTT4=
EXTT5=
EXTT6=
EXTT7=
EXTT8=
EXTT9=
EXTT10=
EXTT11=
PLAYORDER=
